<?xml version="1.0" encoding="UTF-8"?>
<!DOCTYPE svg PUBLIC "-//W3C//DTD SVG 1.1//EN" "http://www.w3.org/Graphics/SVG/1.1/DTD/svg11.dtd">
<!-- Creator: CorelDRAW -->
<svg xmlns="http://www.w3.org/2000/svg" xml:space="preserve" width="16.2468mm" height="22.0389mm" version="1.1" shape-rendering="geometricPrecision" text-rendering="geometricPrecision" image-rendering="optimizeQuality" fill-rule="evenodd" clip-rule="evenodd"
viewBox="0 0 78.68 106.73"
 xmlns:xlink="http://www.w3.org/1999/xlink"
 xmlns:xodm="http://www.corel.com/coreldraw/odm/2003">
 <g id="Layer_x0020_1">
  <metadata id="CorelCorpID_0Corel-Layer"/>
  <g id="_2097996478272">
   <path fill="#023130" fill-rule="nonzero" d="M78.52 63.88c-0.15,-1.58 -1.21,-2.79 -2.83,-2.92 -1.38,-0.11 -2.66,-0.5 -3.86,-1.16 -1.23,-0.68 -2.21,-1.63 -3,-2.81 -0.62,-0.91 -1.03,-1.89 -1.26,-2.94l-0.01 0c0.34,1.54 0.58,3.11 0.7,4.71 0.74,9.83 -3.42,19.89 -10.99,26.59 -0.95,0.84 -1.96,1.63 -3.01,2.36 -8.98,6.25 -20.88,6.25 -29.86,0 -1.05,-0.73 -2.05,-1.52 -3.01,-2.36 -7.58,-6.7 -11.74,-16.76 -10.99,-26.59 0.11,-1.41 0.31,-2.81 0.59,-4.18l-0.03 0c-0.6,2.06 -1.79,3.69 -3.54,4.9 -1.1,0.75 -2.33,1.25 -3.67,1.4 -0.32,0.04 -0.64,0.05 -0.95,0.12 -1.4,0.33 -2.36,1.12 -2.6,2.6 -0.05,0.31 -0.07,0.63 -0.09,0.95 -0.05,0.95 -0.12,1.9 -0.11,2.85 0.01,1.2 0.07,2.4 0.17,3.59 0.05,0.66 0.32,1.26 0.76,1.77 0.67,0.78 1.55,1.03 2.53,1.12 1.7,0.15 3.19,0.83 4.53,1.86 0.73,0.56 1.34,1.25 1.85,2.02 1.02,1.54 1.53,3.23 1.49,5.07 -0.05,2.02 -0.71,3.83 -1.97,5.41 -0.27,0.34 -0.56,0.68 -0.73,1.07 -0.33,0.77 -0.36,1.57 -0.03,2.38 0.27,0.65 0.72,1.15 1.18,1.66 0.6,0.66 1.17,1.34 1.81,1.95 0.8,0.78 1.65,1.52 2.5,2.26 1.21,1.07 2.88,1.07 4.14,0.03 0.64,-0.53 1.32,-0.99 2.07,-1.35 0.84,-0.4 1.72,-0.63 2.64,-0.76 1.06,-0.14 2.11,-0.08 3.14,0.16 1.39,0.33 2.64,0.95 3.73,1.88 0.87,0.74 1.58,1.6 2.1,2.62 0.64,1.24 0.94,2.57 1.08,3.95 0.1,1.05 1.18,2.22 2.23,2.36 1.08,0.15 2.18,0.25 3.27,0.27 1.32,0.02 2.64,-0.08 3.96,-0.12 0.85,-0.03 1.65,-0.2 2.28,-0.81 0.46,-0.44 0.85,-0.94 0.96,-1.59 0.12,-0.72 0.16,-1.47 0.36,-2.17 0.66,-2.35 2,-4.2 4.15,-5.44 1.79,-1.04 3.71,-1.37 5.73,-1.09 1.48,0.2 2.82,0.78 4.02,1.68 0.62,0.46 1.16,1.04 2,1.12 0.8,0.08 1.59,0.07 2.24,-0.46 0.83,-0.68 1.67,-1.36 2.43,-2.11 1.02,-1.02 1.98,-2.11 2.95,-3.18 0.37,-0.41 0.62,-0.9 0.69,-1.46 0.11,-0.91 -0.04,-1.73 -0.63,-2.47 -0.49,-0.61 -0.94,-1.26 -1.31,-1.95 -0.74,-1.38 -1.06,-2.87 -0.93,-4.43 0.06,-0.76 0.22,-1.51 0.42,-2.25 0.41,-1.53 1.26,-2.81 2.43,-3.85 0.53,-0.48 1.15,-0.87 1.75,-1.26 0.88,-0.57 1.89,-0.82 2.92,-0.99 0.49,-0.08 0.99,-0.11 1.46,-0.26 1.13,-0.37 1.9,-1.12 2.09,-2.34 0.08,-0.51 0.11,-1.02 0.14,-1.54 0.04,-0.81 0.09,-1.63 0.08,-2.44 -0.02,-1.14 -0.05,-2.29 -0.16,-3.43z"/>
   <path fill="#023130" fill-rule="nonzero" d="M15.96 59.94c0.72,-9.53 6.8,-17.81 12.43,-25.73 4.45,-6.26 9.58,-13.07 10.98,-20.37 1.4,7.3 5.11,14.11 9.56,20.37 5.62,7.91 11.7,16.19 12.42,25.73 0.58,7.71 -2.68,15.61 -8.62,20.86 -1.59,1.41 -3.37,2.62 -5.27,3.61 -5.5,2.88 -12.1,2.88 -17.61,0 -1.9,-1 -3.68,-2.21 -5.27,-3.61 -5.94,-5.25 -9.21,-13.15 -8.62,-20.86zm5.43 25.42c0.95,0.84 1.96,1.63 3.01,2.36 8.98,6.25 20.88,6.25 29.86,0 1.05,-0.73 2.05,-1.52 3.01,-2.36 7.57,-6.7 11.73,-16.76 10.99,-26.59 -0.12,-1.6 -0.36,-3.16 -0.7,-4.71 -2.25,-10.21 -8.91,-19.33 -15.14,-28.09 -5.67,-7.99 -11.31,-16.66 -13.09,-25.97 -1.79,9.31 -7.42,17.98 -13.09,25.97 -6.33,8.91 -13.12,18.19 -15.25,28.62 -0.28,1.37 -0.48,2.76 -0.59,4.18 -0.75,9.83 3.42,19.89 10.99,26.59z"/>
   <path fill="#023130" fill-rule="nonzero" d="M33.26 81.07c1.37,0.34 2.75,-0.52 3.05,-1.91 0.29,-1.34 -0.61,-2.64 -1.95,-2.98 -1.78,-0.46 -3.52,-1.27 -5.09,-2.38 -5.07,-3.56 -7.61,-9.93 -6.57,-16.21 0.07,-0.45 -0.56,-0.6 -0.71,-0.18 -3.24,9.47 1.93,20.04 11.25,23.66z"/>
  </g>
 </g>
</svg>
