<?xml version="1.0" encoding="UTF-8"?>
<!DOCTYPE svg PUBLIC "-//W3C//DTD SVG 1.1//EN" "http://www.w3.org/Graphics/SVG/1.1/DTD/svg11.dtd">
<!-- Creator: CorelDRAW -->
<svg xmlns="http://www.w3.org/2000/svg" xml:space="preserve" width="59.3633mm" height="22.0389mm" version="1.1" shape-rendering="geometricPrecision" text-rendering="geometricPrecision" image-rendering="optimizeQuality" fill-rule="evenodd" clip-rule="evenodd"
viewBox="0 0 1050.39 389.96"
 xmlns:xlink="http://www.w3.org/1999/xlink"
 xmlns:xodm="http://www.corel.com/coreldraw/odm/2003">
 <g id="Layer_x0020_1">
  <metadata id="CorelCorpID_0Corel-Layer"/>
  <g id="_2097981620976">
   <path fill="#023130" fill-rule="nonzero" d="M286.9 233.42c-0.53,-5.77 -4.42,-10.2 -10.36,-10.66 -5.04,-0.4 -9.73,-1.82 -14.09,-4.24 -4.48,-2.49 -8.07,-5.97 -10.97,-10.26 -2.25,-3.33 -3.76,-6.92 -4.61,-10.73l-0.03 0c1.24,5.64 2.12,11.37 2.57,17.2 2.72,35.91 -12.49,72.68 -40.16,97.15 -3.48,3.08 -7.15,5.95 -10.99,8.62 -32.82,22.83 -76.28,22.83 -109.1,0 -3.84,-2.67 -7.51,-5.54 -10.99,-8.62 -27.68,-24.47 -42.88,-61.24 -40.16,-97.15 0.39,-5.17 1.14,-10.25 2.16,-15.26l-0.1 0c-2.18,7.51 -6.54,13.5 -12.95,17.89 -4.03,2.76 -8.51,4.58 -13.43,5.13 -1.16,0.13 -2.34,0.18 -3.47,0.44 -5.11,1.2 -8.61,4.08 -9.49,9.51 -0.19,1.15 -0.27,2.32 -0.32,3.48 -0.17,3.46 -0.44,6.94 -0.4,10.4 0.05,4.37 0.26,8.75 0.61,13.11 0.19,2.4 1.19,4.59 2.79,6.45 2.43,2.85 5.68,3.77 9.26,4.07 6.2,0.53 11.65,3.03 16.54,6.79 2.67,2.06 4.9,4.56 6.77,7.4 3.72,5.62 5.59,11.79 5.44,18.51 -0.18,7.37 -2.58,13.98 -7.19,19.78 -0.98,1.23 -2.05,2.48 -2.66,3.9 -1.2,2.82 -1.31,5.74 -0.1,8.69 0.97,2.38 2.63,4.21 4.3,6.05 2.18,2.4 4.29,4.88 6.61,7.13 2.94,2.86 6.04,5.56 9.12,8.27 4.43,3.91 10.52,3.9 15.14,0.09 2.35,-1.94 4.84,-3.61 7.56,-4.93 3.05,-1.47 6.29,-2.32 9.66,-2.77 3.87,-0.52 7.7,-0.29 11.47,0.59 5.08,1.2 9.66,3.48 13.64,6.87 3.17,2.69 5.76,5.86 7.68,9.56 2.35,4.54 3.45,9.39 3.93,14.45 0.37,3.83 4.32,8.12 8.13,8.64 3.95,0.54 7.95,0.92 11.94,0.98 4.83,0.07 9.65,-0.29 14.48,-0.44 3.1,-0.09 6.01,-0.74 8.34,-2.96 1.69,-1.62 3.1,-3.42 3.5,-5.81 0.44,-2.65 0.6,-5.36 1.32,-7.93 2.42,-8.6 7.32,-15.33 15.17,-19.88 6.55,-3.8 13.54,-5 20.92,-3.97 5.4,0.75 10.32,2.84 14.7,6.14 2.25,1.69 4.25,3.78 7.29,4.09 2.92,0.3 5.8,0.27 8.19,-1.68 3.04,-2.48 6.12,-4.96 8.89,-7.72 3.74,-3.72 7.23,-7.7 10.77,-11.62 1.36,-1.5 2.25,-3.28 2.51,-5.35 0.41,-3.32 -0.13,-6.31 -2.32,-9.03 -1.79,-2.22 -3.43,-4.61 -4.78,-7.11 -2.71,-5.03 -3.88,-10.49 -3.41,-16.19 0.22,-2.76 0.8,-5.52 1.52,-8.2 1.5,-5.58 4.6,-10.26 8.88,-14.07 1.95,-1.74 4.2,-3.18 6.41,-4.61 3.23,-2.09 6.9,-3 10.66,-3.61 1.78,-0.29 3.63,-0.39 5.32,-0.96 4.14,-1.36 6.94,-4.09 7.65,-8.54 0.3,-1.85 0.41,-3.74 0.5,-5.62 0.15,-2.97 0.34,-5.96 0.29,-8.93 -0.07,-4.18 -0.19,-8.38 -0.57,-12.54z"/>
   <path fill="#023130" fill-rule="nonzero" d="M58.33 219.01c2.64,-34.84 24.86,-65.09 45.4,-94.01 16.25,-22.89 35.01,-47.76 40.13,-74.44 5.12,26.67 18.67,51.55 34.92,74.44 20.54,28.92 42.76,59.17 45.4,94.01 2.14,28.17 -9.79,57.02 -31.5,76.22 -5.82,5.14 -12.31,9.56 -19.25,13.2 -20.1,10.53 -44.22,10.53 -64.33,0 -6.95,-3.64 -13.43,-8.06 -19.25,-13.2 -21.72,-19.19 -33.64,-48.05 -31.5,-76.22zm19.83 92.86c3.48,3.08 7.16,5.96 10.99,8.62 32.82,22.83 76.29,22.83 109.11,0 3.83,-2.66 7.5,-5.54 10.99,-8.62 27.68,-24.47 42.88,-61.24 40.16,-97.15 -0.44,-5.83 -1.33,-11.55 -2.57,-17.2 -8.21,-37.3 -32.56,-70.61 -55.31,-102.63 -20.72,-29.17 -41.31,-60.89 -47.83,-94.89 -6.52,34 -27.11,65.71 -47.83,94.89 -23.13,32.57 -47.93,66.48 -55.7,104.57 -1.02,5.01 -1.77,10.09 -2.16,15.26 -2.73,35.91 12.48,72.68 40.16,97.15z"/>
   <path fill="#023130" fill-rule="nonzero" d="M121.51 296.21c5,1.24 10.06,-1.89 11.16,-6.97 1.06,-4.91 -2.24,-9.66 -7.11,-10.9 -6.51,-1.67 -12.87,-4.63 -18.59,-8.69 -18.52,-13 -27.81,-36.28 -23.99,-59.21 0.24,-1.64 -2.03,-2.19 -2.59,-0.66 -11.84,34.6 7.06,73.21 41.12,86.44z"/>
   <path fill="#023130" fill-rule="nonzero" d="M411.47 65l-56.37 130.41 -55.55 -130.41 -45.71 0 78.85 182.63 41.72 0 79.08 -182.63 -42.01 0zm77.8 148.68l0 -42.24 84.77 0 0 -32.92 -84.77 0 0 -39.65 96.01 0 0 -33.88 -138.03 0 0 182.63 141.43 0 0 -33.95 -99.42 0zm273.45 33.95l-40.98 -58.73c23.75,-10.13 37.58,-30.25 37.58,-57.62 0,-40.98 -30.55,-66.28 -79.3,-66.28l-79.07 0 0 182.63 42.24 0 0 -50.89 36.84 0 2.07 0 35.21 50.89 45.42 0zm-46.16 -116.36c0,19.82 -13.09,31.81 -38.91,31.81l-34.47 0 0 -63.69 34.47 0c25.82,0 38.91,11.76 38.91,31.88zm89.98 116.36l42.31 0 0 -148.24 58.44 0 0 -34.4 -159.19 0 0 34.4 58.44 0 0 148.24zm144.08 -33.95l0 -42.24 84.77 0 0 -32.92 -84.77 0 0 -39.65 96.01 0 0 -33.88 -138.03 0 0 182.63 141.43 0 0 -33.95 -99.42 0z"/>
   <path fill="#023130" fill-rule="nonzero" d="M349.78 331.57l0 -17.36 34.56 0 0 -13.53 -34.56 0 0 -16.3 39.14 0 0 -13.93 -56.27 0 0 75.07 57.66 0 0 -13.96 -40.53 0zm96.87 -61.12l0 45.58 -37 -45.58 -14.26 0 0 75.07 17.01 0 0 -45.58 37.12 45.58 14.17 0 0 -75.07 -17.04 0zm43.16 61.12l0 -17.36 34.56 0 0 -13.53 -34.56 0 0 -16.3 39.14 0 0 -13.93 -56.27 0 0 75.07 57.66 0 0 -13.96 -40.53 0zm111.55 13.96l-16.71 -24.14c9.68,-4.17 15.32,-12.44 15.32,-23.69 0,-16.84 -12.46,-27.24 -32.33,-27.24l-32.24 0 0 75.07 17.22 0 0 -20.92 15.02 0 0.84 0 14.36 20.92 18.52 0zm-18.82 -47.83c0,8.15 -5.34,13.07 -15.86,13.07l-14.05 0 0 -26.18 14.05 0c10.52,0 15.86,4.83 15.86,13.1zm72.71 31.11c-4.34,2.34 -8.72,3.19 -13.39,3.19 -14.27,0 -24.16,-9.97 -24.16,-24.02 0,-14.26 9.89,-24.02 24.37,-24.02 7.54,0 13.84,2.68 19.27,8.48l11.04 -10.31c-7.21,-8.48 -18.06,-12.98 -31.15,-12.98 -23.73,0 -40.95,16.21 -40.95,38.83 0,22.65 17.22,38.83 40.62,38.83 10.64,0 21.92,-3.31 30.13,-9.55l0 -30.47 -15.77 0 0 22.02zm23.07 16.72l17.22 0 0 -75.07 -17.22 0 0 75.07zm43.37 -13.96l0 -17.36 34.56 0 0 -13.53 -34.56 0 0 -16.3 39.14 0 0 -13.93 -56.27 0 0 75.07 57.66 0 0 -13.96 -40.53 0zm70.06 15.23c21.29,0 31.61,-10.7 31.61,-23.26 0,-27.58 -43.31,-18.03 -43.31,-31.87 0,-4.71 3.95,-8.57 14.14,-8.57 6.61,0 13.72,1.91 20.66,5.9l5.31 -13.2c-6.91,-4.41 -16.5,-6.66 -25.85,-6.66 -21.17,0 -31.39,10.61 -31.39,23.38 0,27.88 43.31,18.24 43.31,32.29 0,4.62 -4.16,8.06 -14.36,8.06 -8.96,0 -18.31,-3.22 -24.58,-7.84l-5.85 13.1c6.61,5.14 18.52,8.67 30.31,8.67z"/>
   <path fill="#023130" fill-rule="nonzero" d="M851.92 345.53l54.58 0 0 -14.17 -37.37 0 0 -60.9 -17.22 0 0 75.07zm64.16 0l17.25 0 0 -60.93 23.82 0 0 -14.14 -64.9 0 0 14.14 23.82 0 0 60.93zm41.74 0l33.84 0c24.37,0 41.04,-14.81 41.04,-37.55 0,-22.74 -16.68,-37.52 -41.04,-37.52l-33.84 0 0 75.07zm17.22 -14.26l0 -46.55 15.74 0c14.81,0 24.49,8.91 24.49,23.26 0,14.38 -9.68,23.29 -24.49,23.29l-15.74 0zm65.03 15.11c5.76,0 10.31,-4.38 10.31,-10.52 0,-6.2 -4.55,-10.28 -10.31,-10.28 -5.73,0 -10.31,4.07 -10.31,10.28 0,6.14 4.58,10.52 10.31,10.52z"/>
  </g>
 </g>
</svg>
